<svg xmlns="http://www.w3.org/2000/svg" viewBox="0 0 24 24" fill="none" stroke="currentColor" stroke-width="1.8" stroke-linecap="round" stroke-linejoin="round">
<path d="M10.2 3.3h3.6l.7 2.1c.5.2 1 .4 1.5.6l2-.9 2.5 2.5-.9 2c.3.5.5 1 .6 1.5l2.1.7v3.6l-2.1.7c-.2.5-.4 1-.6 1.5l.9 2-2.5 2.5-2-.9c-.5.3-1 .5-1.5.6l-.7 2.1h-3.6l-.7-2.1c-.5-.2-1-.4-1.5-.6l-2 .9-2.5-2.5.9-2c-.3-.5-.5-1-.6-1.5l-2.1-.7v-3.6l2.1-.7c.2-.5.4-1 .6-1.5l-.9-2 2.5-2.5 2 .9c.5-.3 1-.5 1.5-.6z"/>
<circle cx="12" cy="12" r="3.1"/>
</svg>
